# xmcd
#
# Track frame offsets:
#	150
#	23728
#	46325
#	64046
#	95632
#	118362
#	141976
#	155911
#	172224
#	187233
#	201168
#	213071
#
# Disc length: 3364 seconds
#
# Revision: 1
# Processed by: cddbd v1.5.2PL0 Copyright (c) Steve Scherf et al.
# Submitted via: audiograbber 1.83.01
#
DISCID=bc0d220c
DTITLE=DALE STORR - DALE STORR LIVE AT NOTTINGHAM THEATRE ROYAL MASTER
DYEAR=2013
DGENRE=Piano 
TTITLE0=Dance A La Negres
TTITLE1=Boogie For Tuts
TTITLE2=Dorothy
TTITLE3=Booker Medley
TTITLE4=Sunny Side Of The Street
TTITLE5=Radiatin' The 88's 
TTITLE6=Tipitina
TTITLE7=Pops Dilemma 
TTITLE8=Dr James 
TTITLE9=Blueberry Hill 
TTITLE10=Booker's Bounce 
TTITLE11=A Taste Of Honey
EXTD=
EXTT0=
EXTT1=
EXTT2=
EXTT3=
EXTT4=
EXTT5=
EXTT6=
EXTT7=
EXTT8=
EXTT9=
EXTT10=
EXTT11=
PLAYORDER=
